{
    "asset" : {
        "generator" : "Khronos glTF Blender I/O v0.9.36",
        "version" : "2.0"
    },
    "scene" : 0,
    "scenes" : [
        {
            "name" : "Scene",
            "nodes" : [
                0
            ]
        }
    ],
    "nodes" : [
        {
            "mesh" : 0,
            "name" : "Body",
            "rotation" : [
                0.5,
                -0.5,
                0.5,
                0.4999999701976776
            ]
        }
    ],
    "materials" : [
        {
            "doubleSided" : true,
            "name" : "Material.001",
            "pbrMetallicRoughness" : {
                "baseColorFactor" : [
                    0.025284426286816597,
                    0.025284426286816597,
                    0.025284426286816597,
                    1
                ],
                "metallicFactor" : 0.5727272629737854,
                "roughnessFactor" : 0.6681817770004272
            }
        }
    ],
    "meshes" : [
        {
            "name" : "Cylinder.001",
            "primitives" : [
                {
                    "attributes" : {
                        "POSITION" : 0,
                        "NORMAL" : 1,
                        "TANGENT" : 2,
                        "TEXCOORD_0" : 3
                    },
                    "indices" : 4,
                    "material" : 0
                }
            ]
        }
    ],
    "accessors" : [
        {
            "bufferView" : 0,
            "componentType" : 5126,
            "count" : 2817,
            "max" : [
                0.2807123064994812,
                0.30152496695518494,
                0.28765395283699036
            ],
            "min" : [
                -0.2732061743736267,
                -1.2167855501174927,
                -0.2876538932323456
            ],
            "type" : "VEC3"
        },
        {
            "bufferView" : 1,
            "componentType" : 5126,
            "count" : 2817,
            "type" : "VEC3"
        },
        {
            "bufferView" : 2,
            "componentType" : 5126,
            "count" : 2817,
            "type" : "VEC4"
        },
        {
            "bufferView" : 3,
            "componentType" : 5126,
            "count" : 2817,
            "type" : "VEC2"
        },
        {
            "bufferView" : 4,
            "componentType" : 5123,
            "count" : 11232,
            "type" : "SCALAR"
        }
    ],
    "bufferViews" : [
        {
            "buffer" : 0,
            "byteLength" : 33804,
            "byteOffset" : 0
        },
        {
            "buffer" : 0,
            "byteLength" : 33804,
            "byteOffset" : 33804
        },
        {
            "buffer" : 0,
            "byteLength" : 45072,
            "byteOffset" : 67608
        },
        {
            "buffer" : 0,
            "byteLength" : 22536,
            "byteOffset" : 112680
        },
        {
            "buffer" : 0,
            "byteLength" : 22464,
            "byteOffset" : 135216
        }
    ],
    "buffers" : [
        {
            "byteLength" : 157680,
            "uri" : "cannon.bin"
        }
    ]
}
